<?xml version="1.0" encoding="utf-8"?>
<!-- Generator: Adobe Illustrator 23.0.1, SVG Export Plug-In . SVG Version: 6.00 Build 0)  -->
<svg version="1.1" xmlns="http://www.w3.org/2000/svg" xmlns:xlink="http://www.w3.org/1999/xlink" x="0px" y="0px"
	 viewBox="0 0 560 460" style="enable-background:new 0 0 560 460;" xml:space="preserve">
<style type="text/css">
	.st0{fill:#CC3232;}
</style>
<g id="Layer_1">
	<path d="M304.04,79.65c1.6,0,2.9-1.3,2.9-2.9s-1.3-2.9-2.9-2.9h-27.8v-3.79h27.8c1.6,0,2.9-1.3,2.9-2.9s-1.3-2.9-2.9-2.9h-27.8
		V56.7c0-4.27-3.46-7.73-7.73-7.73c-4.27,0-7.73,3.46-7.73,7.73v7.57h-59.62c-2.05,0-3.7,1.66-3.7,3.7v0.32c0,2.05,1.66,3.7,3.7,3.7
		h59.62v5.74h-59.62c-2.05,0-3.7,1.66-3.7,3.7v0.32c0,2.05,1.66,3.7,3.7,3.7h59.62v5.74h-59.62c-2.05,0-3.7,1.66-3.7,3.7v0.32
		c0,2.05,1.66,3.7,3.7,3.7h59.62v5.74h-59.62c-2.05,0-3.7,1.66-3.7,3.7v0.32c0,2.05,1.66,3.7,3.7,3.7h59.62v5.74h-59.62
		c-2.05,0-3.7,1.66-3.7,3.7v0.32c0,2.05,1.66,3.7,3.7,3.7h59.62v5.74h-59.62c-2.05,0-3.7,1.66-3.7,3.7v0.32c0,2.05,1.66,3.7,3.7,3.7
		h59.62v5.74h-59.62c-2.05,0-3.7,1.66-3.7,3.7v0.32c0,2.04,1.66,3.7,3.7,3.7h59.62v5.74h-59.62c-2.05,0-3.7,1.66-3.7,3.7v0.32
		c0,2.04,1.66,3.7,3.7,3.7h59.62v112.81h-9.66v139.97c0,6.05,4.9,10.95,10.95,10.95h12.88c6.05,0,10.95-4.9,10.95-10.95V279.08
		h-9.66V165.89h27.8c1.6,0,2.9-1.3,2.9-2.9s-1.3-2.9-2.9-2.9h-27.8v-3.79h27.8c1.6,0,2.9-1.3,2.9-2.9s-1.3-2.9-2.9-2.9h-27.8v-3.79
		h27.8c1.6,0,2.9-1.3,2.9-2.9s-1.3-2.9-2.9-2.9h-27.8v-3.79h27.8c1.6,0,2.9-1.3,2.9-2.9v0c0-1.6-1.3-2.9-2.9-2.9h-27.8v-3.79h27.8
		c1.6,0,2.9-1.3,2.9-2.9s-1.3-2.9-2.9-2.9h-27.8v-3.79h27.8c1.6,0,2.9-1.3,2.9-2.9s-1.3-2.9-2.9-2.9h-27.8v-3.79h27.8
		c1.6,0,2.9-1.3,2.9-2.9c0-1.6-1.3-2.9-2.9-2.9h-27.8v-3.79h27.8c1.6,0,2.9-1.3,2.9-2.9c0-1.6-1.3-2.9-2.9-2.9h-27.8v-3.79h27.8
		c1.6,0,2.9-1.3,2.9-2.9s-1.3-2.9-2.9-2.9h-27.8v-3.79H304.04z"/>
	<path class="st0" d="M285.9,301.09h-34.77v-9.66h34.77V301.09z M285.9,310.94h-34.77v9.66h34.77V310.94z"/>
</g>
<g id="Layer_2">
	<path class="st0" d="M517.69,58.11h-30.77c-0.76,0-1.38-0.62-1.38-1.38v-2.57c0-0.76,0.62-1.38,1.38-1.38h30.77
		c0.76,0,1.38,0.62,1.38,1.38v2.57C519.07,57.49,518.46,58.11,517.69,58.11z M522.43,65.23v-2.57c0-0.76-0.62-1.38-1.38-1.38h-37.48
		c-0.76,0-1.38,0.62-1.38,1.38v2.57c0,0.76,0.62,1.38,1.38,1.38h37.48C521.81,66.61,522.43,66,522.43,65.23z M525.78,73.74v-2.57
		c0-0.76-0.62-1.38-1.38-1.38h-44.18c-0.76,0-1.38,0.62-1.38,1.38v2.57c0,0.76,0.62,1.38,1.38,1.38h44.18
		C525.16,75.12,525.78,74.5,525.78,73.74z M529.13,82.25v-2.57c0-0.76-0.62-1.38-1.38-1.38h-50.89c-0.76,0-1.38,0.62-1.38,1.38v2.57
		c0,0.76,0.62,1.38,1.38,1.38h50.89C528.52,83.63,529.13,83.01,529.13,82.25z M532.49,90.75v-2.57c0-0.76-0.62-1.38-1.38-1.38h-57.6
		c-0.76,0-1.38,0.62-1.38,1.38v2.57c0,0.76,0.62,1.38,1.38,1.38h57.6C531.87,92.13,532.49,91.52,532.49,90.75z M535.84,99.26v-2.57
		c0-0.76-0.62-1.38-1.38-1.38h-64.3c-0.76,0-1.38,0.62-1.38,1.38v2.57c0,0.76,0.62,1.38,1.38,1.38h64.3
		C535.22,100.64,535.84,100.02,535.84,99.26z M517.69,137.84h-30.77c-0.76,0-1.38,0.62-1.38,1.38v2.57c0,0.76,0.62,1.38,1.38,1.38
		h30.77c0.76,0,1.38-0.62,1.38-1.38v-2.57C519.07,138.45,518.46,137.84,517.69,137.84z M521.05,129.33h-37.48
		c-0.76,0-1.38,0.62-1.38,1.38v2.57c0,0.76,0.62,1.38,1.38,1.38h37.48c0.76,0,1.38-0.62,1.38-1.38v-2.57
		C522.43,129.95,521.81,129.33,521.05,129.33z M524.4,120.82h-44.18c-0.76,0-1.38,0.62-1.38,1.38v2.57c0,0.76,0.62,1.38,1.38,1.38
		h44.18c0.76,0,1.38-0.62,1.38-1.38v-2.57C525.78,121.44,525.16,120.82,524.4,120.82z M527.75,112.32h-50.89
		c-0.76,0-1.38,0.62-1.38,1.38v2.57c0,0.76,0.62,1.38,1.38,1.38h50.89c0.76,0,1.38-0.62,1.38-1.38v-2.57
		C529.13,112.94,528.52,112.32,527.75,112.32z M531.11,103.81h-57.6c-0.76,0-1.38,0.62-1.38,1.38v2.57c0,0.76,0.62,1.38,1.38,1.38
		h57.6c0.76,0,1.38-0.62,1.38-1.38v-2.57C532.49,104.43,531.87,103.81,531.11,103.81z"/>
	<path d="M510.04,274.75V52.37c0-4.27-3.46-7.73-7.73-7.73c-4.27,0-7.73,3.46-7.73,7.73v222.38h-9.66v139.97
		c0,6.05,4.9,10.95,10.95,10.95h12.88c6.05,0,10.95-4.9,10.95-10.95V274.75H510.04z"/>
	<rect x="484.92" y="288.71" class="st0" width="34.77" height="9.66"/>
</g>
<g id="Layer_3">
	<path class="st0" d="M415.18,92.27c-4.22-24.9-30.05-62.63-29.76-62.27c0.29-0.36-25.55,37.37-29.76,62.27
		c-0.49,12.46,7.82,19.15,15.78,22.71h-3.05l10.17,306.74c0.12,3.7,3.16,6.64,6.86,6.64l0,0c3.7,0,6.74-2.94,6.86-6.64l10.17-306.74
		h-3.05C407.36,111.42,415.67,104.73,415.18,92.27z"/>
	<polygon points="370.42,176.48 400.41,176.48 402.45,114.98 368.38,114.98 	"/>
</g>
<g id="Layer_4">
	<path class="st0" d="M175.49,87.21l-15.38,16.99c0,0,5.11-13.01,7.85-19.75c-5.74-1.98-11.55-3.7-17.4-5.12l-9.5,18.52l4.48-19.68
		c-6.6-1.42-13.26-2.5-19.95-3.23c-2.22,8.62-6.48,25.79-6.48,25.79l0.99-26.32c-9.63-0.78-19.3-0.83-28.94-0.17l-0.92,21.87
		l-3.67-21.5C80.5,75.17,74.43,76,68.4,77.14l1.66,16.38l-4.23-15.87c-4.4,0.89-8.78,1.92-13.13,3.12c0.72,6.07,1.49,13.9,1.49,13.9
		l-6.5-12.45c-3.43,1.04-6.84,2.19-10.22,3.42l4.6,15.09l-8.87-13.48c-3.03,1.19-6.05,2.45-9.03,3.8
		c13.24,20.25,27.52,48.02,41.6,78.67l17.58,239.06c0.81,11.04,10,19.58,21.07,19.58c11.07,0,20.26-8.54,21.07-19.58l17.58-239.06
		c14.08-30.65,28.35-58.41,41.6-78.67C181.63,89.69,178.57,88.41,175.49,87.21z"/>
	<polygon points="137.58,244.2 143.06,169.72 65.76,169.72 71.23,244.2 	"/>
</g>
</svg>
